<svg id="7876519b-15e8-48b7-898c-b82a8c821b6d" data-name="Слой 1" xmlns="http://www.w3.org/2000/svg" viewBox="0 0 32.77 33.13">
  <defs>
    <style>
      .ae0f8503-44dd-47c6-bd4d-ff097f009c1f {
        fill: none;
        stroke: #7b519c;
        stroke-linecap: round;
        stroke-linejoin: round;
      }
    </style>
  </defs>
  <title>adresnayadostavka</title>
  <g>
    <path class="ae0f8503-44dd-47c6-bd4d-ff097f009c1f" d="M-105.55,15.78h25a3.39,3.39,0,0,1,3.38,3.38V36.31a3.39,3.39,0,0,1-3.38,3.38h-8.29L-93,47.91l-4.22-8.23h-8.29a3.39,3.39,0,0,1-3.38-3.38V19.16a3.39,3.39,0,0,1,3.38-3.38h0Z" transform="translate(109.43 -15.28)"/>
    <polyline class="ae0f8503-44dd-47c6-bd4d-ff097f009c1f" points="11.29 9.24 11.29 19.89 21.61 19.89 21.61 13.55"/>
    <polygon class="ae0f8503-44dd-47c6-bd4d-ff097f009c1f" points="14.55 12.66 18.36 12.66 18.36 16.47 14.55 16.47 14.55 12.66 14.55 12.66"/>
    <polyline class="ae0f8503-44dd-47c6-bd4d-ff097f009c1f" points="8.59 11.83 8.66 11.77 8.59 11.7 16.32 4.8 16.38 4.86 16.45 4.8 24.18 11.7 24.11 11.77 24.18 11.83"/>
  </g>
</svg>
