<svg id="5883c3fb-977c-4ae9-a43f-b6d00a0a0c4d" data-name="Слой 1" xmlns="http://www.w3.org/2000/svg" viewBox="0 0 32.75 31.82">
  <defs>
    <style>
      .\34 c65155c-8094-424e-8363-a8a528c8123d, .\34 deefb60-da37-4b3c-aa62-573062e64382, .e7642cc5-ae3a-4940-a4fa-4865daafdaaf {
        fill: none;
        stroke: #7b519c;
      }

      .\34 c65155c-8094-424e-8363-a8a528c8123d, .e7642cc5-ae3a-4940-a4fa-4865daafdaaf {
        stroke-linecap: round;
        stroke-linejoin: round;
      }

      .\34 c65155c-8094-424e-8363-a8a528c8123d {
        stroke-width: 2.19px;
      }

      .\34 deefb60-da37-4b3c-aa62-573062e64382 {
        stroke-miterlimit: 22.93;
      }
    </style>
  </defs>
  <title>free</title>
  <g>
    <path class="4c65155c-8094-424e-8363-a8a528c8123d" d="M-155.83,27.67h0c2.11,0,3.83,2.07,3.83,4.61V34c0,2.54-1.72,4.61-3.83,4.61h0c-2.11,0-3.83-2.07-3.83-4.61V32.28c0-2.54,1.72-4.61,3.83-4.61h0Z" transform="translate(173.75 -15.48)"/>
    <path class="4deefb60-da37-4b3c-aa62-573062e64382" d="M-158,16.86l15.05,15.05a1.69,1.69,0,0,1,0,2.37l-12,12a1.68,1.68,0,0,1-2.37,0l-15.05-15.05a3.82,3.82,0,0,1-.88-1.75V20c0-.79,3.23-4,4-4h9.51a3.84,3.84,0,0,1,1.75.88h0Zm-10.09,4.31a2.88,2.88,0,0,1,4.08,0,2.88,2.88,0,0,1,0,4.08,2.88,2.88,0,0,1-4.08,0,2.88,2.88,0,0,1,0-4.08h0Z" transform="translate(173.75 -15.48)"/>
    <path class="e7642cc5-ae3a-4940-a4fa-4865daafdaaf" d="M-148.34,26.29c4-.67,6.84-2.14,6.84-3.86,0-2.34-5.22-4.23-11.65-4.23s-11.65,1.89-11.65,4.23a2,2,0,0,0,.54,1.28" transform="translate(173.75 -15.48)"/>
  </g>
</svg>
