<svg id="fb53c528-abd6-4389-8545-f3280d8a8b6a" data-name="Слой 1" xmlns="http://www.w3.org/2000/svg" viewBox="0 0 32.75 32.75">
  <defs>
    <style>
      .ea853e14-8092-4e2b-b7d6-2c770822e79c {
        fill: none;
        stroke: #7b519c;
        stroke-linecap: round;
        stroke-linejoin: round;
      }
    </style>
  </defs>
  <title>noviezapchasti</title>
  <g>
    <path class="ea853e14-8092-4e2b-b7d6-2c770822e79c" d="M101.74,143.38c2.2,0.84,1,3.09,2.75,3.93s2.94-1.15,4.67.11c1.48,1.83-.64,3.2.42,4.78s3.12,0.48,4,2.43c0.37,2.33-2.16,2.45-2,4.35s2.46,2,2.24,4.09c-0.84,2.2-3.09,1-3.93,2.75s1.15,2.94-.11,4.67c-1.83,1.48-3.2-.64-4.78.42s-0.48,3.12-2.43,4c-2.33.37-2.45-2.16-4.35-2s-2,2.46-4.09,2.24c-2.2-.84-1-3.09-2.75-3.93s-2.94,1.15-4.67-.11c-1.48-1.83.64-3.2-.42-4.78s-3.12-.48-4-2.43c-0.37-2.33,2.16-2.45,2-4.35s-2.46-2-2.24-4.09c0.84-2.2,3.09-1,3.93-2.75s-1.15-2.94.11-4.67c1.83-1.48,3.2.64,4.78-.42s0.48-3.12,2.43-4c2.33-.37,2.45,2.16,4.35,2s2-2.46,4.09-2.24h0Z" transform="translate(-81.54 -142.86)"/>
    <path class="ea853e14-8092-4e2b-b7d6-2c770822e79c" d="M97.92,152.31h0a5.85,5.85,0,0,1,5.83,5.83v2.19a5.85,5.85,0,0,1-5.83,5.83h0a5.85,5.85,0,0,1-5.83-5.83v-2.19a5.85,5.85,0,0,1,5.83-5.83h0Z" transform="translate(-81.54 -142.86)"/>
  </g>
</svg>
