<svg id="a8aec32c-ad46-4054-9915-d524088cb862" data-name="Слой 1" xmlns="http://www.w3.org/2000/svg" viewBox="0 0 34.4 30.32">
  <defs>
    <style>
      .bb172d89-0569-4273-b99c-5275a3da3efd {
        fill: none;
      }

      .\36 286ef40-53cf-4f5a-bcd7-9b1501d04eee, .bb172d89-0569-4273-b99c-5275a3da3efd {
        stroke: #7b519c;
        stroke-linecap: round;
        stroke-linejoin: round;
      }

      .\36 286ef40-53cf-4f5a-bcd7-9b1501d04eee {
        fill: #334d5e;
        fill-rule: evenodd;
      }
    </style>
  </defs>
  <title>oplatapripoluchenii</title>
  <g>
    <path class="bb172d89-0569-4273-b99c-5275a3da3efd" d="M-174.08-29h33.4V-46.4h-33.4V-29h0Zm16.7-3c2.35,0,4.25-2.54,4.25-5.67s-1.9-5.67-4.25-5.67-4.25,2.54-4.25,5.67,1.9,5.67,4.25,5.67h0ZM-168-29.75A5.24,5.24,0,0,0-173.24-35m26.48,5.24A5.24,5.24,0,0,1-141.52-35M-168-45.63a5.24,5.24,0,0,1-5.24,5.24m26.48-5.24a5.24,5.24,0,0,0,5.24,5.24" transform="translate(174.58 46.9)"/>
    <path class="6286ef40-53cf-4f5a-bcd7-9b1501d04eee" d="M-165.89-36.59a1.1,1.1,0,0,0,1.1-1.1,1.1,1.1,0,0,0-1.1-1.1,1.1,1.1,0,0,0-1.1,1.1,1.1,1.1,0,0,0,1.1,1.1h0Z" transform="translate(174.58 46.9)"/>
    <path class="6286ef40-53cf-4f5a-bcd7-9b1501d04eee" d="M-148.88-36.59a1.1,1.1,0,0,0,1.1-1.1,1.1,1.1,0,0,0-1.1-1.1,1.1,1.1,0,0,0-1.1,1.1,1.1,1.1,0,0,0,1.1,1.1h0Z" transform="translate(174.58 46.9)"/>
    <line class="bb172d89-0569-4273-b99c-5275a3da3efd" x1="0.62" y1="21.98" x2="33.78" y2="21.98"/>
    <line class="bb172d89-0569-4273-b99c-5275a3da3efd" x1="0.62" y1="25.9" x2="33.78" y2="25.9"/>
    <line class="bb172d89-0569-4273-b99c-5275a3da3efd" x1="0.62" y1="29.82" x2="33.78" y2="29.82"/>
  </g>
</svg>
