<svg id="3f35e12c-72cf-469b-9efc-6fc16a59d515" data-name="Слой 1" xmlns="http://www.w3.org/2000/svg" viewBox="0 0 33.9 30.37">
  <defs>
    <style>
      .\35 70104e0-2ae3-4ac8-a9c2-58c47cdef4b3 {
        fill: none;
        stroke: #7b519c;
        stroke-linecap: round;
        stroke-linejoin: round;
      }
    </style>
  </defs>
  <title>secret</title>
  <path class="570104e0-2ae3-4ac8-a9c2-58c47cdef4b3" d="M172.5,148.39h8.23v26.72h-32.9V148.39H156m0.62-2.66h15.22v5H156.67v-5h0Zm10.84,12.08h8.73m-8.73,3.53h8.73m-8.73,3.53h8.73m-8.73,3.53H173m-15.86-5.18a3.27,3.27,0,0,1-2.36-3.45,2.37,2.37,0,1,1,4.73,0,3.21,3.21,0,0,1-2.36,3.45h0Zm-2.18.4h4.35a2.66,2.66,0,0,1,2.66,2.65v2.11h-9.67v-2.11a2.66,2.66,0,0,1,2.66-2.65h0Z" transform="translate(-147.32 -145.24)"/>
</svg>
